<?xml version="1.0" encoding="UTF-8" standalone="no"?><!DOCTYPE svg PUBLIC "-//W3C//DTD SVG 1.1//EN" "http://www.w3.org/Graphics/SVG/1.1/DTD/svg11.dtd"><svg width="100%" height="100%" viewBox="0 0 512 512" version="1.1" xmlns="http://www.w3.org/2000/svg" xmlns:xlink="http://www.w3.org/1999/xlink" xml:space="preserve" xmlns:serif="http://www.serif.com/" style="fill-rule:evenodd;clip-rule:evenodd;stroke-linecap:round;stroke-linejoin:round;"><rect x="0" y="0" width="512" height="512" style="fill:none;fill-rule:nonzero;"/><path d="M256,213.333c0,-70.218 -57.781,-128 -128,-128l-64,0l0,42.667c0,70.219 57.781,128 128,128l64,0" style="fill:none;fill-rule:nonzero;stroke:#737373;stroke-width:32px;"/><path d="M256,298.667c0,-70.219 57.781,-128 128,-128l64,-0l0,21.333c0,70.219 -57.781,128 -128,128l-64,0" style="fill:none;fill-rule:nonzero;stroke:#737373;stroke-width:32px;"/><path d="M256,426.667l0,-213.334" style="fill:none;fill-rule:nonzero;stroke:#737373;stroke-width:32px;"/><path d="M325.419,107.764l37.494,-50.728c24.235,-32.791 36.353,-49.186 47.66,-45.722c11.305,3.465 11.305,23.574 11.305,63.792l-0,3.792c-0,14.506 -0,21.758 4.635,26.308l0.245,0.236c4.735,4.453 12.284,4.453 27.381,4.453c27.169,0 40.754,0 45.344,8.239c0.076,0.136 0.149,0.275 0.222,0.413c4.334,8.368 -3.532,19.009 -19.263,40.292l-37.493,50.728c-24.236,32.79 -36.354,49.187 -47.661,45.721c-11.305,-3.465 -11.305,-23.573 -11.305,-63.792l0.001,-3.79c0,-14.507 0,-21.759 -4.635,-26.309l-0.245,-0.235c-4.735,-4.453 -12.284,-4.453 -27.381,-4.453c-27.169,-0 -40.753,-0 -45.344,-8.241c-0.076,-0.136 -0.15,-0.273 -0.222,-0.412c-4.334,-8.367 3.532,-19.008 19.262,-40.292Z" style="fill:#f4ab00;fill-rule:nonzero;"/></svg>