<?xml version="1.0" encoding="UTF-8" standalone="no"?><!DOCTYPE svg PUBLIC "-//W3C//DTD SVG 1.1//EN" "http://www.w3.org/Graphics/SVG/1.1/DTD/svg11.dtd"><svg width="100%" height="100%" viewBox="0 0 512 512" version="1.1" xmlns="http://www.w3.org/2000/svg" xmlns:xlink="http://www.w3.org/1999/xlink" xml:space="preserve" xmlns:serif="http://www.serif.com/" style="fill-rule:evenodd;clip-rule:evenodd;stroke-linejoin:round;stroke-miterlimit:2;"><rect id="Artboard1" x="0" y="0" width="512" height="512" style="fill:none;"/><g id="Artboard11" serif:id="Artboard1"><path d="M327.978,424.784c3.058,4.534 9.141,5.821 13.6,2.889l14.022,-9.244l0.254,20.844c0.197,15.675 -13.295,29.167 -28.977,28.976c-16.187,-0.203 -29.517,-13.533 -29.721,-29.721l-1.574,-125.351c-0.294,-23.466 -32.796,41.047 -19.171,31.078l1.181,94.028c0.19,15.683 -13.301,29.174 -28.983,28.984c-7.838,-0.092 -15.244,-3.234 -20.862,-8.852c-5.618,-5.618 -8.761,-13.023 -8.852,-20.862l-0.262,-20.85l14.258,9.599c4.521,3.059 10.587,1.938 13.525,-2.542c2.945,-4.459 1.659,-10.54 -2.875,-13.599l-44.944,-30.272l0.735,57.419c0.157,13.053 5.396,25.41 14.754,34.768c9.358,9.359 21.715,14.597 34.768,14.754c13.068,0.172 25.29,-4.766 34.409,-13.885c1.694,-1.694 3.088,-3.593 4.482,-5.478c9.075,12.094 23.327,20.145 39.377,20.346c13.068,0.172 25.283,-4.76 34.409,-13.885c9.126,-9.126 14.057,-21.342 13.893,-34.416l-0.715,-57.411l-44.184,29.153c-4.506,2.937 -5.606,8.996 -2.547,13.53Z" style="fill:#6d6d6d;fill-rule:nonzero;"/><g><path d="M163.194,213.031l64.462,128.924l118.979,0.195l28.793,-40.531l-212.234,-88.588Z" style="fill:#6d6d6d;fill-rule:nonzero;"/><path d="M118.452,227.187l86.664,118.966l141.519,0.234l28.793,-44.508l-256.976,-74.692Z" style="fill:#888;fill-rule:nonzero;"/><path d="M222.365,82.262l42.182,32.718l38.139,-73.184l-12.96,-8.293l-67.361,48.759Z" style="fill:#888;fill-rule:nonzero;"/><path d="M346.635,346.387l-124.27,-264.125l26.583,-19.239l144.6,210.817l-46.913,72.547Z" style="fill:#6d6d6d;fill-rule:nonzero;"/><path d="M277.767,42.16l80.944,65.385l-56.805,-83.363l-24.139,17.978Z" style="fill:#6d6d6d;fill-rule:nonzero;"/></g></g></svg>